<svg xmlns="http://www.w3.org/2000/svg" width="280" height="280"><g fill="none" fill-rule="evenodd"><circle cx="140" cy="140" r="140" fill="#F9FAFB"/><g fill-rule="nonzero"><path fill="#242424" d="M143.585 125.88c5.79 5.79 5.818 15.151.062 20.907l-23.564 23.564c-5.756 5.757-15.116 5.729-20.907-.062-5.79-5.79-5.818-15.15-.062-20.907l23.564-23.564c5.756-5.756 15.117-5.728 20.907.062zm9.063-9.063c-10.826-10.825-28.326-10.877-39.087-.116l-23.564 23.564c-10.762 10.762-10.71 28.262.116 39.087 10.826 10.826 28.326 10.878 39.087.116l23.564-23.564c10.762-10.761 10.71-28.261-.116-39.087z"/><path fill="#FF5252" d="M180.816 109.365c5.79 5.79 5.818 15.15.062 20.907l-23.564 23.564c-5.756 5.756-15.116 5.728-20.907-.062-5.79-5.79-5.818-15.151-.062-20.907l23.564-23.564c5.756-5.756 15.117-5.729 20.907.062zm9.063-9.063c-10.826-10.826-28.326-10.878-39.087-.116l-23.564 23.564c-10.762 10.761-10.71 28.261.116 39.087 10.826 10.826 28.326 10.878 39.087.116l23.564-23.564c10.762-10.761 10.71-28.261-.116-39.087z"/><path fill="#242424" d="M98.679 149.817l-9.117-9.117c-10.764 10.764-10.715 28.266.111 39.092s28.328 10.875 39.092.112l24.013-24.013-9.117-9.117-24.013 24.013c-5.759 5.759-15.121 5.732-20.912-.058-5.79-5.79-5.816-15.153-.057-20.912z"/></g></g></svg>