<svg xmlns="http://www.w3.org/2000/svg" width="280" height="280"><g fill="none" fill-rule="evenodd"><circle cx="140" cy="140" r="140" fill="#F9FAFB"/><g transform="translate(96 87)"><path fill="#242424" d="M15.16 0h56.582a4.8 4.8 0 0 1 4.782 4.385l4.4 50.737-4.372 46.527A4.8 4.8 0 0 1 71.773 106h-56.65a4.8 4.8 0 0 1-4.778-4.348l-4.37-46.178 4.403-51.086A4.8 4.8 0 0 1 15.16 0z"/><path fill="#FFF" stroke="#242424" stroke-width="4.8" d="M66.937 48.173h27.61v8.47h-27.61z"/><ellipse cx="43.551" cy="53.531" fill="#FFF" stroke="#242424" stroke-width="4.8" rx="43.551" ry="43.894"/><ellipse cx="40.634" cy="58.88" fill="#FF5252" rx="35.854" ry="36.136" style="mix-blend-mode:multiply"/><path stroke="#242424" stroke-linecap="round" stroke-linejoin="round" stroke-width="4.8" d="M43.024 38.545V55.45L56.22 74.682"/></g></g></svg>