<svg xmlns="http://www.w3.org/2000/svg" width="190" height="190"><g fill="none" fill-rule="evenodd"><path fill="#FFF" d="M0 190h190V0H0z"/><path stroke="#242424" stroke-linecap="round" stroke-linejoin="round" stroke-width="4" d="M52 78h85a2 2 0 0 1 2 2v66a2 2 0 0 1-2 2H43a2 2 0 0 1-2-2V89c0-6.075 4.925-11 11-11z"/><path fill="#FFF" stroke="#242424" stroke-width="4" d="M41 89c0 6.033 4.896 10.97 10.88 10.97h75.824a2.305 2.305 0 0 1 2.296 2.314v57.401c0 1.274-1.034 2.315-2.296 2.315H51.88C45.896 162 41 157.064 41 151.03V89z"/><path fill="#FFF" d="M77.595 81.096l3.142 8.223c1.558 4.077 13.47 3.312 26.609-1.708 13.138-5.02 22.526-12.396 20.968-16.473l-3.142-8.222"/><path fill="#FF5252" d="M125.171 62.916c1.558 4.077-7.83 11.452-20.967 16.473-13.137 5.02-25.051 5.785-26.61 1.707-1.557-4.077 7.83-11.452 20.969-16.473 13.136-5.02 25.05-5.785 26.608-1.707"/><path fill="#FFF" d="M49.404 34.895l-2.22 8.722c-1.682 6.605 7.351 14.606 20.176 17.87 12.824 3.266 24.584.558 26.265-6.047l2.221-8.722"/><path fill="#FF5252" d="M95.846 46.718c-1.682 6.605-13.44 9.313-26.266 6.048C56.756 49.5 47.722 41.5 49.404 34.895c1.682-6.606 13.441-9.314 26.266-6.05 12.824 3.267 21.858 11.268 20.176 17.873"/><path fill="#EAEDEF" stroke="#242424" stroke-width="4" d="M154 108.249c0-3.987-3.381-7.249-7.513-7.249H139v20h15v-12.751z"/><path fill="#EAEDEF" stroke="#242424" stroke-width="4" d="M146.94 136c3.883 0 7.06-3.224 7.06-7.164V109c0 3.941-3.177 7.526-7.06 7.526h-29.858c-3.358 0-6.081 2.592-6.081 6v7.303c0 3.408 2.723 6.171 6.08 6.171h29.86z"/><path fill="#242424" d="M106.62 85.712c-6.167 2.357-12.224 3.826-17.051 4.137-5.168.325-6.757-.794-6.933-1.256l-1.178-3.08c.933.15 1.999.236 3.233.236.623 0 1.288-.02 1.996-.067 5.225-.335 11.704-1.896 18.243-4.395 6.539-2.499 12.408-5.656 16.524-8.89 1.666-1.309 2.887-2.512 3.783-3.618l1.178 3.084c.627 1.64-5.352 8.33-19.794 13.85m-7.333-19.19c6.168-2.358 12.224-3.827 17.052-4.137a28.15 28.15 0 0 1 1.777-.06c3.766 0 5.002.911 5.156 1.316.176.461-.257 2.36-4.33 5.558-3.804 2.99-9.296 5.933-15.464 8.29-6.17 2.357-12.225 3.826-17.052 4.136-5.165.334-6.757-.794-6.933-1.255-.627-1.64 5.352-8.33 19.794-13.849m30.924 3.89l-3.142-8.22c-.777-2.035-3.314-4.355-10.991-3.863-5.224.336-11.703 1.897-18.242 4.396-17.65 6.744-23.85 14.627-22.14 19.096l3.142 8.223c.705 1.846 2.86 3.928 8.995 3.928.623 0 1.287-.022 1.995-.068 5.225-.335 11.704-1.895 18.243-4.394 17.649-6.745 23.849-14.628 22.14-19.098M86.436 51.463c-4.652 1.071-10.46.834-16.354-.666-10.051-2.56-20.206-9.514-18.708-15.401.607-2.385 3.32-4.297 7.44-5.246 1.92-.443 4.034-.662 6.27-.662 3.186 0 6.62.446 10.085 1.328 10.05 2.558 20.206 9.513 18.708 15.4-.608 2.386-3.32 4.298-7.441 5.247m-2.221 8.722c-4.653 1.071-10.46.834-16.353-.666-10.051-2.56-20.207-9.514-18.708-15.402l.292-1.148c3.456 4.978 10.596 9.466 19.633 11.766 3.784.964 7.559 1.45 11.093 1.45 2.547 0 4.969-.252 7.177-.761 1.72-.396 3.254-.938 4.592-1.606l-.284 1.12c-.608 2.385-3.32 4.297-7.442 5.247m-8.043-33.308c-6.51-1.658-12.998-1.901-18.27-.689-5.74 1.322-9.456 4.236-10.466 8.205l-2.221 8.721c-1.99 7.812 7.518 16.747 21.644 20.343 3.784.964 7.559 1.449 11.092 1.449 2.548 0 4.969-.252 7.177-.76 5.74-1.322 9.457-4.236 10.467-8.204l2.22-8.722c1.99-7.812-7.518-16.747-21.643-20.343"/></g></svg>