<svg xmlns="http://www.w3.org/2000/svg" width="280" height="280" viewBox="0 0 280 280">
    <g fill="none" fill-rule="evenodd">
        <circle cx="140" cy="140" r="140" fill="#F9FAFB"/>
        <path fill="#FFF" stroke="#242424" stroke-linecap="round" stroke-linejoin="round" stroke-width="4" d="M118.975 100l12.368 9.908s25.903-6.05 39.993 3.445c14.09 9.495 15.53 23.897 12.094 37.147s-12.644 28.347-12.644 28.347l-12.643.153-1.512-6.335h-19.378l-2.53 6.335h-13.687v-13.775s-8.37-1.725-13.943-4.684c-3.716-1.973-6.81-4.173-9.282-6.6L93 139.5l10.444-4.824c1.476-5.9 3.542-10.273 6.199-13.117 3.986-4.266 7.82-6.697 7.82-6.697L118.975 100z"/>
    </g>
</svg>
