<svg xmlns="http://www.w3.org/2000/svg" width="280" height="280" viewBox="0 0 280 280">
    <g fill="none" fill-rule="evenodd">
        <circle cx="140" cy="140" r="140" fill="#F9FAFB"/>
        <path fill="#242424" stroke="#242424" stroke-width="4" d="M105.5 169.5h74a4 4 0 0 0 4-4v-59a4 4 0 0 0-4-4h-74a4 4 0 0 0-4 4v59a4 4 0 0 0 4 4z"/>
        <path fill="#FFF" d="M91 178h82v-67H91z"/>
        <path stroke="#242424" stroke-width="4" d="M95 178h74a4 4 0 0 0 4-4v-59a4 4 0 0 0-4-4H95a4 4 0 0 0-4 4v59a4 4 0 0 0 4 4z"/>
        <path fill="#FF5252" d="M187 156h-19.022c-6.615 0-11.978-5.373-11.978-12s5.363-12 11.978-12H187a3 3 0 0 1 3 3v18a3 3 0 0 1-3 3z"/>
    </g>
</svg>
