<svg xmlns="http://www.w3.org/2000/svg" width="280" height="280"><g fill="none" fill-rule="evenodd"><circle cx="140" cy="140" r="140" fill="#F9FAFB"/><path fill="#242424" stroke="#242424" stroke-width="4.8" d="M98.421 175.224h88.966a4.8 4.8 0 0 0 4.8-4.8V99.8a4.8 4.8 0 0 0-4.8-4.8H98.42a4.8 4.8 0 0 0-4.8 4.8v70.624a4.8 4.8 0 0 0 4.8 4.8z"/><path fill="#FFF" d="M81 185.401h98.566v-80.224H81z"/><path stroke="#242424" stroke-width="4.8" d="M85.8 185.401h88.966a4.8 4.8 0 0 0 4.8-4.8v-70.624a4.8 4.8 0 0 0-4.8-4.8H85.8a4.8 4.8 0 0 0-4.8 4.8v70.624a4.8 4.8 0 0 0 4.8 4.8z"/><path fill="#FF5252" d="M196.4 159.059h-22.871c-7.952 0-14.398-6.433-14.398-14.37 0-7.934 6.446-14.367 14.398-14.367H196.4a3.6 3.6 0 0 1 3.6 3.6v21.537a3.6 3.6 0 0 1-3.6 3.6z"/></g></svg>