<svg xmlns="http://www.w3.org/2000/svg" width="190" height="190"><g fill="none" fill-rule="evenodd"><path fill="#FFF" d="M0 190h190V0H0z"/><path fill="#EAEDEF" d="M146.835 47.918c0 11.553-9.365 20.918-20.918 20.918-11.552 0-20.917-9.365-20.917-20.918C105 36.365 114.365 27 125.917 27c11.553 0 20.918 9.365 20.918 20.918"/><path fill="#242424" d="M125.917 27C115.486 27 107 35.486 107 45.918c0 10.432 8.486 18.918 18.917 18.918 10.432 0 18.918-8.486 18.918-18.918 0-10.432-8.486-18.918-18.918-18.918m0 41.836C113.28 68.836 103 58.555 103 45.918 103 33.281 113.28 23 125.917 23c12.637 0 22.918 10.281 22.918 22.918 0 12.637-10.281 22.918-22.918 22.918"/><path stroke="#242424" stroke-linecap="round" stroke-linejoin="round" stroke-width="4" d="M129.5 40.5H125c-2 0-3 1-3 3s1 3 3 3h3c2 0 3 1 3 3s-1 3-3 3h-5.25M126 38v1.5m0 14.5v1.5"/><path fill="#242424" d="M101.745 162.056h16.123l.64-8.106a2 2 0 0 1 .784-1.435c.088-.066 8.813-6.766 14.214-16.437 4.9-8.772 8.88-31.071-3.572-45.318-24.198-27.684-61.907-9.854-62.285-9.672a1.993 1.993 0 0 1-1.465.11c-15.708-4.863-24.325.118-27.274 2.449 4.587 6.137 8.19 11.72 8.23 11.78.32.497.404 1.11.229 1.677l-3.91 12.583a2.003 2.003 0 0 1-1.203 1.278l-9.74 3.674c.022 2.2.265 7.127 1.749 13.805 1.756 7.905 15.323 8.03 15.459 8.03a2.005 2.005 0 0 1 1.61.818c3.753 5.118 8.578 9.62 8.627 9.666a2 2 0 0 1 .636 1.373l.628 13.725h14.348l.56-7.056c.08-1.043.949-2 1.995-2h21.335c1.074 0 1.957.925 1.999 2l.283 7.056zM99.82 166c-1.074 0-1.957-.926-1.998-2l-.284-7H79.982l-.561 7c-.08 1.043-.948 2-1.994 2H59.315c-1.07 0-1.95-.933-1.998-2l-.68-14.683c-1.376-1.332-4.86-4.821-7.942-8.874-3.724-.195-16.21-1.564-18.335-11.132-2.167-9.754-1.836-15.922-1.821-16.18a2 2 0 0 1 1.29-1.754l10.1-3.81 3.34-10.75c-1.25-1.898-4.663-6.99-8.638-12.2a2 2 0 0 1 .074-2.52c.409-.472 10.132-11.39 31.935-4.94 5.62-2.443 42.073-16.751 66.306 10.97 13.287 15.2 10.273 38.764 4.052 49.903-4.95 8.863-12.258 15.22-14.571 17.103l-.718 9.08c-.083 1.04-.951 1.787-1.994 1.787H99.82z"/><path fill="#242424" d="M63.053 108.454a4.275 4.275 0 1 1-8.55 0 4.275 4.275 0 0 1 8.55 0m86.435-5.784c-.12 2.15 1.04 4.116 2.342 5.18.936.766 1.772.948 2.18.79.315-.122 1.271-.49.97-1.904-.309-1.457-2.053-3.56-5.492-4.066m4.215 10.018c-1.455 0-3.012-.6-4.406-1.742-2.446-2-3.858-5.072-3.815-8.12-1.136.291-1.989.82-2.586 1.598-1.648 2.15-.929 5.618-.92 5.653a2.003 2.003 0 0 1-1.528 2.377 1.996 1.996 0 0 1-2.379-1.513c-.048-.214-1.137-5.28 1.633-8.924 1.521-2 3.817-3.145 6.83-3.403 1.3-2.575 4.082-5.402 9.818-7.497a2 2 0 1 1 1.371 3.758c-2.993 1.093-5.215 2.46-6.593 4.038 4.35.998 7.12 3.955 7.765 6.991.614 2.887-.739 5.425-3.445 6.467a4.828 4.828 0 0 1-1.745.317"/><path fill="#FF5252" stroke="#242424" stroke-width="4" d="M104.341 90C112.956 86.37 119 77.82 119 67.914 119 54.707 108.254 44 95 44c-13.255 0-24 10.707-24 23.914C71 77.866 77.1 86.4 85.78 90h18.561z"/><path fill="#242424" d="M98.617 76.824a2 2 0 0 1-1.913-1.417l-1.92-6.3-1.92 6.3a2 2 0 0 1-3.828 0l-3.833-12.574a2 2 0 1 1 3.826-1.166l1.921 6.3 1.92-6.3a2.001 2.001 0 0 1 3.827 0l1.92 6.3 1.921-6.3a1.995 1.995 0 0 1 2.496-1.33 2 2 0 0 1 1.33 2.496l-3.834 12.574a2 2 0 0 1-1.913 1.417"/><path fill="#242424" d="M87.337 70h-2.625c-.931 0-1.688-.896-1.688-2s.757-2 1.688-2h2.625c.931 0 1.687.896 1.687 2s-.756 2-1.687 2m17.408 0h-2.624c-.933 0-1.688-.896-1.688-2s.755-2 1.688-2h2.624c.932 0 1.688.896 1.688 2s-.756 2-1.688 2m10.508 22H75a2 2 0 0 1 0-4h40.253a2 2 0 0 1 0 4"/></g></svg>