<svg xmlns="http://www.w3.org/2000/svg" width="280" height="280" viewBox="0 0 280 280">
    <g fill="none" fill-rule="evenodd">
        <circle cx="140" cy="140" r="140" fill="#F9FAFB"/>
        <g transform="translate(104 97)">
            <path fill="#242424" d="M12.668 0h47.378a4 4 0 0 1 3.985 3.652l3.68 42.11-3.656 38.615A4 4 0 0 1 60.073 88H12.637a4 4 0 0 1-3.982-3.62L5 46.054l3.683-42.4A4 4 0 0 1 12.668 0z"/>
            <path fill="#FFF" stroke="#242424" stroke-width="4" d="M56 40h23.119v7.017H56z"/>
            <circle cx="36.441" cy="44.441" r="36.441" fill="#FFF" stroke="#242424" stroke-width="4"/>
            <circle cx="34" cy="48.881" r="30" fill="#FF5252" style="mix-blend-mode:multiply"/>
            <path stroke="#242424" stroke-linecap="round" stroke-linejoin="round" stroke-width="4" d="M36 32v14.034L47.041 62"/>
        </g>
    </g>
</svg>
