<svg xmlns="http://www.w3.org/2000/svg" width="190" height="190"><g fill="none" fill-rule="evenodd"><path fill="#FFF" d="M0 190h190V0H0z"/><rect width="84" height="124" x="47" y="43" fill="#FF5252" stroke="#242424" stroke-width="4" rx="8"/><rect width="84" height="113" x="47" y="43" fill="#FFF" stroke="#242424" stroke-width="4" rx="8"/><rect width="64" height="4" x="57" y="59" fill="#242424" rx="2"/><path stroke="#242424" stroke-width="4" d="M131 53h10a5 5 0 0 1 5 5v49a5 5 0 0 1-5 5h-10V53z"/><path fill="#242424" d="M135 53h4v60h-4z"/><path fill="#EAEDEF" stroke="#242424" stroke-linecap="round" stroke-linejoin="round" stroke-width="4" d="M59 75h60v19H59z"/><path fill="#FFF" stroke="#242424" stroke-linecap="round" stroke-linejoin="round" stroke-width="4" d="M66 60.997V28.018l7.855-4.02 7.478 4.02L89 23.998l7.666 4.02 7.668-4.02 7.666 4.02v32.98z"/><circle cx="74" cy="110" r="3.5" fill="#242424"/><circle cx="74" cy="125" r="3.5" fill="#242424"/><circle cx="89" cy="110" r="3.5" fill="#242424"/><circle cx="89" cy="125" r="3.5" fill="#242424"/><circle cx="104" cy="110" r="3.5" fill="#242424"/><circle cx="104" cy="125" r="3.5" fill="#242424"/><circle cx="74" cy="140" r="3.5" fill="#242424"/><circle cx="89" cy="140" r="3.5" fill="#242424"/><circle cx="104" cy="140" r="3.5" fill="#242424"/></g></svg>