<svg xmlns="http://www.w3.org/2000/svg" width="280" height="280" viewBox="0 0 280 280">
    <g fill="none" fill-rule="evenodd">
        <circle cx="140" cy="140" r="140" fill="#F9FAFB"/>
        <g stroke="#242424" stroke-width="4" transform="translate(98 96)">
            <ellipse cx="42" cy="71" fill="#FFF" rx="42" ry="17"/>
            <path fill="#FFF" d="M41.5 76C60.5 54.218 70 38.188 70 27.912 70 12.496 57.24 0 41.5 0S13 12.496 13 27.912C13 38.188 22.5 54.218 41.5 76z"/>
            <circle cx="41" cy="30" r="11" fill="#FFF"/>
            <path fill="#242424" d="M64.5 74C72.167 65.115 76 58.577 76 54.385 76 48.097 70.851 43 64.5 43S53 48.097 53 54.385c0 4.192 3.833 10.73 11.5 19.615z"/>
        </g>
    </g>
</svg>
