<svg xmlns="http://www.w3.org/2000/svg" width="190" height="190"><g fill="none" fill-rule="evenodd"><path fill="#FFF" d="M0 190h190V0H0z"/><path fill="#EAEDEF" stroke="#242424" stroke-width="4" d="M147 160H43V58.965C43 47.938 51.887 39 62.85 39h64.3C138.113 39 147 47.938 147 58.965V160z"/><path fill="#FFF" stroke="#242424" stroke-linecap="round" stroke-linejoin="round" stroke-width="4" d="M53 68h84v92H53z"/><path fill="#FF5252" stroke="#242424" stroke-width="4" d="M68 87h54v54H68z"/><path stroke="#242424" stroke-width="4" d="M84 133h-8v-20h18v10H84z"/><path fill="#242424" d="M92 93h4v9h-4zm2 9h5v6h-5zm11 9h11v5h-11zm-16 17h7v4h-7zm5 4h5v5h-5zM74 93h7v7h-7zm35 0h7v7h-7zm0 35h7v7h-7z"/><path stroke="#242424" stroke-width="4" d="M68 87h19v19H68zm35 0h19v19h-19zm0 35h19v19h-19z"/><path fill="#242424" d="M160.013 162H29.987A1.994 1.994 0 0 1 28 160c0-1.104.89-2 1.987-2h130.026c1.097 0 1.987.896 1.987 2s-.89 2-1.987 2M98 54a3 3 0 1 1-6 0 3 3 0 0 1 6 0"/></g></svg>