<svg xmlns="http://www.w3.org/2000/svg" xmlns:xlink="http://www.w3.org/1999/xlink" width="190" height="190"><defs><path id="a" d="M0 190h190V0H0z"/></defs><g fill="none" fill-rule="evenodd"><path fill="#FFF" d="M0 190h190V0H0z"/><path fill="#242424" d="M154.013 162H39.987A1.994 1.994 0 0 1 38 160c0-1.104.89-2 1.987-2h114.026c1.097 0 1.987.896 1.987 2s-.89 2-1.987 2"/><mask id="b" fill="#fff"><use xlink:href="#a"/></mask><path fill="#EAEDEF" d="M121 68h18v92h-18z" mask="url(#b)"/><path fill="#242424" d="M57 158h80V70H57v88zm81.994 4H55.006A2.006 2.006 0 0 1 53 159.994V68.006c0-1.107.898-2.006 2.006-2.006h83.988c1.107 0 2.006.899 2.006 2.006v91.988a2.007 2.007 0 0 1-2.006 2.006z" mask="url(#b)"/><path fill="#242424" d="M50.961 65.891h92.077V58.11H50.96v7.782zM145.02 70H48.981C47.887 70 47 69.08 47 67.946V56.054C47 54.92 47.887 54 48.98 54h96.04c1.093 0 1.98.92 1.98 2.054v11.892c0 1.135-.887 2.054-1.98 2.054z" mask="url(#b)"/><path fill="#242424" d="M121 161c-1.104 0-2-.89-2-1.985v-91.03c0-1.096.896-1.985 2-1.985s2 .89 2 1.985v91.03a1.993 1.993 0 0 1-2 1.985" mask="url(#b)"/><path fill="#FFF" stroke="#242424" stroke-linecap="round" stroke-linejoin="round" stroke-width="4" d="M49 123h78v-14H49z" mask="url(#b)"/><path fill="#EAEDEF" stroke="#242424" stroke-linecap="round" stroke-linejoin="round" stroke-width="4" d="M116 34c0 12.15-10.073 22-22.5 22S71 46.15 71 34h45z" mask="url(#b)"/><ellipse cx="120.25" cy="40.5" stroke="#242424" stroke-width="4" mask="url(#b)" rx="4.75" ry="4.5"/><path fill="#FF5252" d="M121.402 130.444H43.58l5.4-6.893h77.82z" mask="url(#b)"/><path fill="#242424" d="M48 128h72.734l2.266-3H50.266L48 128zm73.62 4H43.996c-.763 0-1.46-.441-1.794-1.135a2.042 2.042 0 0 1 .223-2.13l5.386-6.96a1.986 1.986 0 0 1 1.57-.775h77.625c.763 0 1.46.441 1.794 1.135a2.043 2.043 0 0 1-.223 2.13l-5.385 6.96a1.985 1.985 0 0 1-1.57.775z" mask="url(#b)"/><path fill="#FFF" d="M68.55 131.444v27.984" mask="url(#b)"/><path fill="#242424" d="M68.55 161.428a2 2 0 0 1-2-2v-27.984a2 2 0 0 1 4 0v27.984a2 2 0 0 1-2 2" mask="url(#b)"/><path fill="#FFF" d="M105.046 131.444v27.984" mask="url(#b)"/><path fill="#242424" d="M105.046 161.428a2 2 0 0 1-2-2v-27.984a2 2 0 0 1 4 0v27.984a2 2 0 0 1-2 2" mask="url(#b)"/><path fill="#FF5252" stroke="#242424" stroke-linecap="round" stroke-linejoin="round" stroke-width="4" d="M35 104h10V73H35z" mask="url(#b)"/><path fill="#242424" d="M55.193 82h-9.386C44.81 82 44 81.104 44 80s.81-2 1.807-2h9.386c.997 0 1.807.896 1.807 2s-.81 2-1.807 2m0 18h-9.386C44.81 100 44 99.104 44 98s.81-2 1.807-2h9.386c.997 0 1.807.896 1.807 2s-.81 2-1.807 2" mask="url(#b)"/><path fill="#FFF" stroke="#242424" stroke-width="4" d="M45 91.573L35 98V85.427L45 79z" mask="url(#b)"/></g></svg>