<svg xmlns="http://www.w3.org/2000/svg" width="280" height="280"><g fill="none" fill-rule="evenodd"><circle cx="140" cy="140" r="140" fill="#F9FAFB"/><g transform="translate(90 87)"><ellipse cx="50.5" cy="85.523" fill="#FFF" stroke="#242424" stroke-width="4.8" rx="50.5" ry="20.477"/><path fill="#FF5252" stroke="#FF5252" stroke-width="4.8" d="M49.899 91.545C72.744 65.308 84.167 46 84.167 33.621 84.167 15.052 68.824 0 49.899 0 30.973 0 15.63 15.052 15.63 33.62c0 12.38 11.423 31.688 34.268 57.925z"/><ellipse cx="49.298" cy="36.136" fill="#FFF" rx="15.631" ry="15.659"/><path fill="#242424" stroke="#242424" stroke-width="4.8" d="M77.554 89.136C86.772 78.434 91.38 70.558 91.38 65.51c0-7.574-6.19-13.714-13.827-13.714s-13.828 6.14-13.828 13.714c0 5.05 4.61 12.925 13.828 23.627z"/></g></g></svg>