<svg xmlns="http://www.w3.org/2000/svg" width="190" height="190"><g fill="none" fill-rule="evenodd"><path fill="#FFF" d="M0 190h190V0H0z"/><path fill="#242424" d="M72.553 114.066a2.001 2.001 0 0 1-.863-3.805c7.029-3.357 15.899-5.207 24.976-5.207 7.918 0 12.21.366 18.3 2.632a1.999 1.999 0 0 1 1.178 2.57 1.996 1.996 0 0 1-2.571 1.178c-5.432-2.02-9.152-2.38-16.907-2.38-8.493 0-16.751 1.71-23.252 4.817a1.99 1.99 0 0 1-.861.195"/><path fill="#242424" d="M76 109.56V73.929c0-5.582 4.542-10.123 10.124-10.123C91.706 63.806 96 68.418 96 74v33.027c0 1.105-.875 2-1.98 2-1.104 0-2.02-.895-2.02-2V73.902c0-3.376-2.727-6.123-6.103-6.123-3.377 0-5.897 2.774-5.897 6.15v35.63a2 2 0 0 1-4 0z"/><path fill="#242424" d="M92 105.56V73.929c0-5.582 4.542-10.123 10.124-10.123 5.582 0 9.876 4.612 9.876 10.194v33.027c0 1.105-.875 2-1.98 2-1.104 0-2.02-.895-2.02-2V73.902c0-3.376-2.727-6.123-6.103-6.123-3.377 0-5.897 2.774-5.897 6.15v31.63a2 2 0 0 1-4 0z"/><path fill="#242424" d="M108 107.56V78.929c0-5.582 4.542-10.123 10.124-10.123 5.582 0 9.876 4.612 9.876 10.194v23.027c0 1.105-.875 2-1.98 2-1.104 0-2.02-.895-2.02-2V78.902c0-3.376-2.727-6.123-6.103-6.123-3.377 0-5.897 2.774-5.897 6.15v28.63a2 2 0 0 1-4 0z"/><path fill="#242424" d="M61.006 135L61 88.589c0-5.216 4.32-9.46 9.536-9.46 5.215 0 9.458 4.244 9.458 9.46.004 2.562.006 4.483.006 5.764v13.756a2 2 0 0 1-4 0v-19.52a5.47 5.47 0 0 0-5.464-5.46c-3.01 0-5.536 2.45-5.536 5.46V135c0 16.613 13.594 30 30.207 30 15.725 0 28.652-11.725 32.168-29.383 1.287-6.458 7.768-23.587 8.043-24.313a5.838 5.838 0 0 0-.116-4.496 5.83 5.83 0 0 0-3.245-3.1 5.873 5.873 0 0 0-7.586 3.367l-5.697 14.784a1.998 1.998 0 0 1-1.866 1.28c-20.505 0-26.732 18.447-26.987 19.232a2 2 0 0 1-3.808-1.224c.07-.216 7.04-21.15 29.412-21.982l5.213-13.53c1.957-5.076 7.682-7.616 12.756-5.66a9.795 9.795 0 0 1 5.464 5.21 9.796 9.796 0 0 1 .196 7.548c-.062.164-6.634 17.532-7.855 23.666C127.398 155.98 112.894 169 95.207 169c-18.819 0-34.201-15.181-34.201-34z"/><path fill="#EAEDEF" d="M102.273 48.864c0 13.65-11.065 24.717-24.717 24.717-13.65 0-24.717-11.068-24.717-24.718s11.067-24.716 24.717-24.716c13.652 0 24.717 11.066 24.717 24.717"/><path fill="#242424" d="M77.557 26.147c-12.526 0-22.717 10.19-22.717 22.717 0 12.526 10.19 22.717 22.717 22.717 12.526 0 22.717-10.191 22.717-22.717 0-12.527-10.191-22.717-22.717-22.717m0 49.434c-14.731 0-26.717-11.986-26.717-26.717 0-14.732 11.986-26.717 26.717-26.717 14.73 0 26.717 11.985 26.717 26.717 0 14.73-11.986 26.717-26.717 26.717"/><path fill="#FF5252" d="M123.308 66.717c0 15.407-12.49 27.897-27.897 27.897-15.408 0-27.898-12.49-27.898-27.897 0-15.407 12.49-27.896 27.898-27.896 15.407 0 27.897 12.489 27.897 27.896"/><path fill="#242424" d="M95.411 40.82c-14.28 0-25.897 11.617-25.897 25.896 0 14.282 11.617 25.899 25.897 25.899 14.28 0 25.897-11.618 25.897-25.899 0-14.279-11.617-25.896-25.897-25.896m0 55.795c-16.485 0-29.897-13.412-29.897-29.898 0-16.486 13.412-29.897 29.897-29.897s29.897 13.411 29.897 29.896c0 16.486-13.412 29.899-29.897 29.899"/><path fill="#FFF" d="M113.266 66.717c0 9.861-7.994 17.854-17.854 17.854-9.861 0-17.855-7.993-17.855-17.854 0-9.86 7.994-17.854 17.855-17.854 9.86 0 17.854 7.994 17.854 17.854"/><path fill="#242424" d="M95.411 50.864c-8.742 0-15.854 7.112-15.854 15.854 0 8.741 7.112 15.853 15.854 15.853 8.742 0 15.854-7.111 15.854-15.853 0-8.743-7.112-15.855-15.854-15.855m0 35.709c-10.948 0-19.854-8.907-19.854-19.855 0-10.947 8.906-19.854 19.854-19.854 10.948 0 19.854 8.907 19.854 19.855 0 10.947-8.906 19.853-19.854 19.853"/><path fill="#FFF" d="M89.294 62.701l3.059 10.032 3.058-10.032 3.059 10.032 3.057-10.032"/><path fill="#242424" d="M92.352 74.734a2 2 0 0 1-1.913-1.417L87.38 63.285a2 2 0 0 1 3.826-1.166l1.146 3.757 1.146-3.757a2 2 0 0 1 3.826 0l1.145 3.756 1.146-3.756a2 2 0 0 1 3.826 1.166l-3.059 10.032a2 2 0 0 1-3.826 0l-1.145-3.757-1.146 3.757a2 2 0 0 1-1.913 1.417"/><path fill="#242424" d="M90.106 69.165h-2.48a2 2 0 0 1 0-4h2.48a2 2 0 0 1 0 4m13.09 0h-2.48a2 2 0 0 1 0-4h2.48a2 2 0 0 1 0 4"/></g></svg>