<svg xmlns="http://www.w3.org/2000/svg" width="280" height="280"><g fill="none" fill-rule="evenodd"><circle cx="140" cy="140" r="140" fill="#F9FAFB"/><g transform="translate(82 91)"><ellipse cx="36.883" cy="50.195" fill="#FFF" stroke="#242424" stroke-width="4.8" rx="36.883" ry="36.797"/><ellipse cx="32.344" cy="54.724" fill="#FF5252" rx="31.146" ry="31.073" style="mix-blend-mode:multiply"/><path stroke="#242424" stroke-width="4.8" d="M30.736 50.67h6.817c2.852 0 5.186-2.315 5.186-5.143 0-2.83-2.334-5.144-5.186-5.144h-6.817v20.851h8.339c2.852 0 5.185-2.315 5.185-5.143 0-2.83-2.333-5.145-5.185-5.145h-8.339"/><g stroke="#242424" stroke-linejoin="round" stroke-width="4.8"><path fill="#FFF" d="M86.924 59.446l-27.91-.229 27.91 38.27 26.539-38.27z"/><path fill="#242424" d="M86.924 35.2l-27.91 24.017 27.91 16.655 26.539-16.655z"/><path fill="#FFF" d="M86.924 0l26.539 45.336-26.54 16.07-27.91-16.07L86.923 0z"/></g></g></g></svg>