<svg xmlns="http://www.w3.org/2000/svg" width="280" height="280" viewBox="0 0 280 280">
    <g fill="none" fill-rule="evenodd">
        <circle cx="140" cy="140" r="140" fill="#F9FAFB"/>
        <g fill-rule="nonzero">
            <path fill="#242424" d="M143.94 128.722c4.812 4.811 4.812 12.613 0 17.425l-19.698 19.698c-4.812 4.812-12.614 4.812-17.425 0-4.812-4.812-4.812-12.614 0-17.425l19.698-19.698c4.811-4.812 12.613-4.812 17.425 0zm7.576-7.576c-8.996-8.996-23.582-8.996-32.578 0L99.24 140.844c-8.996 8.996-8.996 23.58 0 32.577 8.996 8.996 23.582 8.996 32.578 0l19.698-19.698c8.996-8.996 8.996-23.581 0-32.577z"/>
            <path fill="#FFF" stroke="#242424" stroke-width="4" d="M175.011 114.865c4.812 4.811 4.812 12.613 0 17.425l-19.698 19.698c-4.812 4.811-12.613 4.811-17.425 0-4.812-4.812-4.812-12.614 0-17.425l19.698-19.698c4.812-4.812 12.613-4.812 17.425 0zm7.576-7.577c-8.996-8.996-23.581-8.996-32.577 0l-19.698 19.698c-8.996 8.996-8.996 23.582 0 32.578 8.996 8.996 23.581 8.996 32.577 0l19.698-19.698c8.996-8.996 8.996-23.582 0-32.578z"/>
            <path fill="#242424" d="M106.453 148.783l-7.576-7.576c-8.998 8.998-9 23.585-.004 32.582 8.996 8.996 23.583 8.994 32.581-.004l20.073-20.073-7.576-7.576-20.073 20.073c-4.814 4.814-12.617 4.815-17.429.003-4.812-4.811-4.81-12.614.004-17.429z"/>
        </g>
    </g>
</svg>
