<svg xmlns="http://www.w3.org/2000/svg" width="184" height="32"><g fill="none" fill-rule="evenodd"><path fill="#242424" d="M3.714 0L0 6.682V31.62h127.276V0z"/><path fill="#FEFEFE" d="M106.514 7.919h13.384-13.384zm-68.911 0h-9.467H41.52zm-9.467 0l-1.942 3.695h11.409l.005 12.132h1.966l1.944-3.695V7.92z"/><path fill="#FEFEFE" d="M30.107 20.051v-7.406h-3.916v11.101H36.57v-3.695zM9.32 7.919h13.384H9.32zM7.377 23.746h13.384l1.943-3.695h-11.41v-7.406H7.377zm.003-12.132h15.324V7.92H9.32zm39.554-3.695H61.9 46.934zm4.467 12.132v3.695h1.974l1.943-3.695v-7.406H51.4zm-6.404 0v3.695h1.972l1.944-3.695v-7.406h-3.916z"/><path fill="#FEFEFE" d="M61.901 7.919H46.934l-1.94 3.695h12.991v12.132h1.974l1.942-3.695zm25.799 0h13.384H87.7zm-1.94 3.695h11.408l.003 12.132h1.969l1.944-3.695V7.92H87.7z"/><path fill="#FEFEFE" d="M89.672 20.051v-7.406h-3.916v11.101h10.378v-3.695zm14.9 3.695h1.972l1.943-3.695v-7.406h-3.915z"/><path fill="#FEFEFE" d="M119.899 20.051l-.001-12.133h-13.384l-1.94 3.69 11.408.006.014 12.132h1.974l1.942-3.695zM67.36 7.919h14.953H67.36zm0 0h14.968-14.967zm4.469 12.132v3.695H73.8l1.945-3.695v-7.406h-3.916zm-6.405 0v3.695h1.971l1.945-3.695v-7.406h-3.916z"/><path fill="#FEFEFE" d="M82.328 7.919H67.361l-1.94 3.695h12.991v12.132h1.973l1.943-3.695z"/><path fill="#242424" d="M126.473 0v31.62h53.613l3.617-6.659V0h-57.23zm1.83 1.83h53.571v22.665l-2.877 5.294h-50.694V1.83z"/><path fill="#242424" d="M131.25 15.257h1.808v6.58h4.093v1.631h-5.9zm6.863 8.211h1.784v-6.287h-1.784v6.287zm-.046-6.98h1.875v-1.583h-1.875v1.583zm3.694 2.218h-.738V17.24h.738v-.4c0-.68.169-1.187.504-1.525.33-.327.811-.492 1.443-.492.283 0 .523.016.722.048.2.03.381.074.546.128v1.478a3.482 3.482 0 0 0-.388-.111 1.97 1.97 0 0 0-.423-.041c-.43 0-.643.228-.643.68v.246h1.442v1.455h-1.42v4.762h-1.783v-4.762zm8.012 1.127c-.054-.4-.194-.722-.423-.969-.225-.246-.527-.369-.903-.369-.375 0-.676.121-.908.364-.231.242-.381.567-.452.974h2.686zm-1.15 3.776c-.468 0-.905-.077-1.308-.234a3.034 3.034 0 0 1-1.73-1.694 3.42 3.42 0 0 1-.246-1.322v-.022c0-.446.077-.869.229-1.267.152-.4.366-.746.64-1.045a2.974 2.974 0 0 1 2.239-.96c.524 0 .978.093 1.362.28.383.188.701.44.955.756.254.318.443.68.564 1.092.121.41.18.839.18 1.284 0 .07 0 .145-.005.223-.004.078-.01.16-.017.247h-4.377c.088.406.266.713.534.921.272.208.605.31 1.004.31.299 0 .564-.05.798-.152.235-.102.478-.266.727-.493l1.021.904a3.162 3.162 0 0 1-1.08.861c-.422.208-.92.311-1.49.311z"/></g></svg>