<svg xmlns="http://www.w3.org/2000/svg" width="169" height="25"><path d="M160.5 11.123v3.375h1.644v3.622c0 1.769-1.513 1.802-1.513 1.802-1.84 0-1.77-1.682-1.77-1.682V5.713c0-1.29 1.632-1.359 1.632-1.359 1.567 0 1.579 1.538 1.579 1.538v1.906h6.035c.197-3.718-.543-4.618-.543-4.618-1.498-3.362-7.161-3.178-7.161-3.178-8.705 0-7.739 6.678-7.739 6.678v12.112c.187 6.263 8.762 5.628 8.908 5.62 3.816-.423 4.968-1.635 4.968-1.635 1.06-.787 1.333-1.876 1.333-1.876.303-.636.38-2.66.38-2.66v-7.118H160.5m-20.005 3.723h-.262L134.106.856h-7.326v22.99h5.963l-.358-13.989h.267l6.345 13.988h7.107V.855h-6.039l.43 13.99m-28.275 3.271s.087 1.887-1.662 1.887c0 0-1.84.099-1.84-1.84L108.697.87h-6.541v17.156s-.671 6.493 8.492 6.493c0 0 7.964.095 7.964-6.195V.871h-6.393v17.245m-19.957-6.678s-1.636-1.012-2.65-1.403c0 0-3.133-1.452-3.755-2.144 0 0-1.22-1.15-.505-2.486 0 0 .298-.875 1.588-.875 0 0 1.68.093 1.68 1.474V7.95h6.022l-.011-2.868S95.094.385 87.539.178c0 0-5.942-.39-7.645 2.81 0 0-.67.713-.67 3.2v1.797s-.067 2.073.991 3.407c0 0 .599.875 2.074 1.843 0 0 2.993 1.612 4.789 2.534 0 0 1.814 1.035 1.575 2.682 0 0-.147 1.69-1.899 1.623 0 0-1.602-.074-1.602-1.732v-1.947h-6.414v2.83s-.18 5.408 8.064 5.408c0 0 7.876.16 8.244-5.552v-2.3s.278-3.5-2.784-5.343M61.439.851l-2.016 12.634h-.471L57.026.965H46.968l-.503 22.876h5.954l.072-17.237h.468l3.156 17.234h6.265L65.497 6.61h.415l.144 17.231h5.985L71.397.851H61.44M25.993.946l-3.962 22.87h6.41l2.346-17.733h.529l2.345 17.733h6.41L36.11.946H25.993M13.521 11.438s-1.634-1.012-2.648-1.403c0 0-3.131-1.45-3.752-2.144 0 0-1.22-1.151-.506-2.485 0 0 .299-.875 1.587-.875 0 0 1.68.092 1.68 1.473V7.95h6.025l-.013-2.87S16.354.385 8.802.179c0 0-.569-.037-1.403.005 0 0-4.575.246-6.211 2.756l-.032.049S.49 3.7.49 6.188v1.797s-.07 2.072.99 3.407c0 0 .598.875 2.073 1.843 0 0 2.992 1.61 4.788 2.533 0 0 1.816 1.035 1.577 2.683 0 0-.149 1.69-1.899 1.623 0 0-1.601-.074-1.601-1.732v-1.948H0v2.83s-.18 5.409 8.064 5.409c0 0 7.875.16 8.245-5.552v-2.3s.276-3.5-2.788-5.343" fill="#242424" fill-rule="evenodd"/></svg>