<svg xmlns="http://www.w3.org/2000/svg" xmlns:xlink="http://www.w3.org/1999/xlink" width="145" height="68" viewBox="0 0 145 68">
    <defs>
        <path id="a" d="M.015.494h20.337v31.26H.015z"/>
    </defs>
    <g fill="none" fill-rule="evenodd">
        <path fill="#242424" d="M13.053 38.859H1.022a.21.21 0 0 0-.208.187v.9c0 .105.054.2.155.224.739.172 2.001.811 2.001 1.64l.004 21.856c0 1.378-.224 2.19-1.4 2.603a.246.246 0 0 0-.162.24l-.001.784c0 .118.111.213.232.213h9.028c.12 0 .23-.093.23-.213v-.785c0-.107-.057-.214-.161-.24-1.187-.294-3.453-.364-3.453-2.289l.002-22.856c0-.182.15-.329.332-.326l4.369.064c3.558 0 5.675 2.046 5.675 6.586 0 4.221-2.183 6.383-5.75 6.548l-2.459.054a.333.333 0 0 0-.266.534l.6.812c.067.1.161.163.29.163l1.958-.003c6.289 0 10.192-1.758 10.192-8.157 0-6.146-3.994-8.539-9.177-8.539M71.432 64.59c-.087-.113-.147-.157-.271-.119-.847.266-1.573.608-3.125.608-1.927-.063-2.862-1.505-2.862-3.328V50.47c0-.129.104-.232.233-.232h4.384c.128 0 .301-.106.387-.233l.83-1.157c.09-.118-.023-.267-.15-.267h-5.45a.233.233 0 0 1-.234-.234v-5.693a.233.233 0 0 0-.232-.234h-1.315a.23.23 0 0 0-.227.197c-.473 3.066-1.938 5.64-4.63 6.567a.23.23 0 0 0-.157.217v.604c0 .128.104.233.232.233h1.886c.128 0 .232.103.232.232v10.987c0 2.73.482 4.071 1.693 4.997.952.727 2.505 1.03 4.401 1.03 1.972 0 3.718-.962 4.857-1.914.07-.058.079-.2.028-.294l-.51-.686zM13.246 2.87C7.208 2.87 2.7 5.75.882 11.196.31 12.916 0 14.888 0 17.108c0 9.56 5.71 14.419 13.39 14.419 4.08 0 7.626-2.103 8.53-2.787.078-.06.081-.252.026-.332l-.684-.939c-.086-.124-.168-.196-.294-.154-1.167.385-3.352 1.626-6.098 1.6-5.549-.05-10.08-3.659-10.08-11.67 0-2.414.234-4.415.683-6.049 1.177-4.284 3.835-6.04 7.667-6.04.038 0 .069.005.106.005 3.585.06 3.587 3.055 4.38 5.287.034.094.145.142.23.183l.734.379c.101.053.263.008.36-.126l3.23-4.455c.07-.096.082-.474-.04-.578-1.13-.986-3.818-2.981-8.894-2.981"/>
        <g transform="translate(24.643 -.508)">
            <mask id="b" fill="#fff">
                <use xlink:href="#a"/>
            </mask>
            <path fill="#242424" d="M.248 3.373h1.095c.13 0 .234.105.234.233l.004 24.307c0 1.378-.225 2.192-1.402 2.604-.101.035-.162.123-.162.24v.784a.212.212 0 0 0 .212.213h6.999a.233.233 0 0 0 .232-.232l-.001-.766c0-.113-.06-.204-.161-.24-1.177-.411-1.402-1.225-1.402-2.603l.02-7.762a4.85 4.85 0 0 1 2.7-4.352c.93-.454 1.954-.804 2.947-.804 3.093 0 3.017 1.782 3.017 4.944l.004 7.974c0 1.378-.224 2.192-1.401 2.604-.102.035-.162.114-.162.24v.784c0 .117.095.213.212.213h6.887a.231.231 0 0 0 .232-.232l-.001-.766a.265.265 0 0 0-.18-.246c-1.16-.414-1.383-1.225-1.383-2.597l-.005-8.888c0-3.76-.015-6.876-5.04-6.876-3.193 0-6.49 2.685-7.854 3.81V1.01c0-.285-.355-.584-.622-.504C4.094.86.577 1.917.187 2.037a.238.238 0 0 0-.172.235v.868c0 .13.105.233.233.233" mask="url(#b)"/>
        </g>
        <path fill="#242424" d="M144.802 61.407c-.165-3.068-2.263-4.445-4.706-5.458-2.749-1.14-5.694-2.07-5.87-4.253-.144-1.768.91-2.7 2.621-2.7 2.204 0 2.997 1.165 3.384 3.754.011.075.088.123.162.14l.698.153c.13.03.246-.055.334-.185l2.487-3.428c.062-.085-.014-.206-.098-.255-1.503-.873-3.985-1.681-6.335-1.681-3.626 0-7.175 1.79-6.965 5.691.198 3.662 3.304 4.687 6.058 5.683 2.135.773 4.142 1.656 4.142 3.97 0 2-1.344 3.195-3.573 3.195-2.626 0-3.527-2.303-3.676-4.37-.006-.077-.082-.13-.158-.151l-.877-.24c-.119-.033-.189.03-.282.151l-2.508 3.416c-.066.1-.049.26.03.319 1.515 1.157 4.891 2.327 7.623 2.327 3.36 0 7.755-1.514 7.509-6.078M104.907 47.587c-3.993 0-7.024 2.535-8.066 5.658-1.016 3.05-.83 6.245.003 8.75 1.31 3.93 4.367 5.473 8.429 5.473 2.462 0 5.57-1.517 6.913-3.621.101-.158.17-.248.049-.415l-.505-.695c-.102-.141-.241-.086-.368.019-1.636 1.343-3.728 2.084-5.394 2.084-2.53 0-3.64-.68-4.729-3.163-.05-.115-.115-.36-.152-.48-.716-2.358-.444-5.41-.328-6.857.2-2.942 1.792-5.357 4.148-5.357 2.054 0 3.764 2.415 3.964 5.357.043.555.084.834.08 1.727a.583.583 0 0 1-.582.581h-5.884c-.208 0-.46.24-.276.555l.624.845c.131.18.38.253.693.253 0 0 6.487.004 9.203.004.37 0 .53.03.53-.298 0-1.405-.14-3.538-.549-4.762-1.04-3.123-3.407-5.658-7.803-5.658M71.087 8.079c.974 0 2.587-1.339 2.587-2.604 0-1.266-1.45-2.605-2.587-2.605-1.139 0-2.588 1.297-2.588 2.605s1.613 2.604 2.588 2.604M67.905 14.59H69c.13 0 .233.105.233.233l.001.821.003 11.76c0 1.379-.224 2.192-1.402 2.604a.243.243 0 0 0-.16.24l-.001.784c0 .122.11.213.231.213h6.864c.121 0 .231-.091.231-.213v-.784c0-.11-.06-.204-.161-.24-1.177-.412-1.402-1.225-1.402-2.603l-.046-11.76v-3.416c0-.285-.354-.585-.622-.505-1.172.354-4.536 1.41-4.925 1.53a.238.238 0 0 0-.171.236v.868c0 .13.104.233.232.233M78.586 14.59h1.095c.13 0 .234.105.234.233v.821l.011 11.76c0 1.372-.222 2.183-1.382 2.597a.267.267 0 0 0-.18.247l-.001.766c0 .128.104.231.231.231h6.864c.121 0 .232-.098.232-.213v-.784c0-.113-.06-.204-.162-.24-1.177-.412-1.402-1.225-1.402-2.603l.023-7.665a4.851 4.851 0 0 1 2.512-4.25c.996-.544 2.077-1.004 3.137-1.004 3.093 0 3.021 1.783 3.021 4.945l.004 7.974c0 1.371-.222 2.182-1.382 2.596a.285.285 0 0 0-.181.247v.784c0 .127.11.213.231.213h6.867a.232.232 0 0 0 .231-.231v-.766a.243.243 0 0 0-.161-.24c-1.177-.412-1.402-1.225-1.402-2.603l-.008-8.887c0-3.76-.016-6.877-5.04-6.877-3.193 0-6.49 2.686-7.854 3.81V12.23c0-.285-.355-.585-.622-.505-1.173.354-4.587 1.41-4.977 1.53a.238.238 0 0 0-.171.236v.868c0 .13.104.233.232.233M74.378 50.55h1.095c.13 0 .233.104.233.233v.821l.011 11.76c0 1.372-.221 2.183-1.382 2.597a.266.266 0 0 0-.18.246v.766c0 .129.103.232.23.232h6.864c.122 0 .233-.099.233-.213l-.001-.785a.243.243 0 0 0-.162-.239c-1.177-.412-1.401-1.225-1.401-2.603l.022-7.665a4.853 4.853 0 0 1 2.513-4.252c.995-.542 2.077-1.002 3.136-1.002 3.094 0 3.022 1.783 3.022 4.944l.004 7.975c0 1.37-.223 2.182-1.383 2.596a.284.284 0 0 0-.18.246l-.002.785c0 .125.112.213.233.213h6.866a.232.232 0 0 0 .232-.232l-.001-.766a.244.244 0 0 0-.162-.239c-1.176-.412-1.4-1.225-1.4-2.603l-.01-8.888c0-3.759-.014-6.877-5.038-6.877-3.194 0-6.49 2.686-7.854 3.81V48.19c0-.285-.355-.586-.622-.505-1.173.354-4.589 1.41-4.977 1.53a.237.237 0 0 0-.172.235v.869c0 .129.105.232.233.232M54.472 47.626c-1.991 0-4.201 2.056-5.36 3.532a.231.231 0 0 1-.413-.145v-3.04c0-.285-.354-.586-.622-.505-1.172.354-4.593 1.41-4.981 1.53a.237.237 0 0 0-.172.236v.868c0 .13.105.233.233.233h1.095c.13 0 .233.104.234.232v.411l.002 12.378c0 1.378-.224 2.191-1.402 2.603a.243.243 0 0 0-.16.24l-.002.784c0 .122.11.213.233.213h7.907c.122 0 .232-.092.232-.213l-.001-.784a.245.245 0 0 0-.16-.24c-1.178-.412-2.438-.567-2.438-2.603v-7.71c0-2.205 1.462-4.207 3.61-4.709.31-.073.632-.114.965-.114.84 0 1.261.144 1.727.444.136.089.262-.006.362-.144l1.567-2.16c.053-.072.003-.188-.062-.246-.275-.24-1.039-1.091-2.394-1.091M126.71 47.626c-1.99 0-4.2 2.056-5.36 3.532a.231.231 0 0 1-.413-.145v-3.04c0-.285-.353-.586-.622-.505-1.172.354-4.592 1.41-4.98 1.53a.237.237 0 0 0-.172.236v.868c0 .13.105.233.233.233h1.095c.129 0 .232.104.233.232v.411h.001l.001 12.378c0 1.378-.223 2.191-1.401 2.603a.243.243 0 0 0-.16.24l-.002.784c0 .122.11.213.233.213h7.907c.121 0 .232-.092.232-.213l-.001-.784a.245.245 0 0 0-.16-.24c-1.178-.412-2.439-.567-2.439-2.603v-7.71c0-2.205 1.463-4.207 3.611-4.709.31-.073.632-.114.965-.114.84 0 1.26.144 1.727.444.136.089.261-.006.362-.144l1.567-2.16c.052-.072.003-.188-.062-.246-.275-.24-1.039-1.091-2.394-1.091M64.166 30.017c-1.177-.412-1.402-1.225-1.402-2.603l-.005-8.855c0-3.76-.015-6.876-5.04-6.876-3.251 0-7.256 1.937-8.874 3.26a.345.345 0 0 0-.069.454l.408.535c.106.164.326.21.489.1 1.158-.784 3.879-1.503 5.866-1.503 3.078 0 3.018 1.766 3.017 4.9-1.867.193-4.329.682-6.212 1.128-1.94.462-4.203 1.524-5 3.817-.701 2.018-.386 3.907.54 5.11 1.168 1.518 2.832 1.937 4.46 2.052 1.996 0 3.147-.317 4.677-1.513.048-.037.165-.105.028-.293l-.48-.666c-.12-.165-.233-.136-.333-.096-2.45 1.13-4.43-.146-5.147-1.49-.992-1.867-.306-3.762 1.303-4.805 1.385-.887 4.764-1.447 6.164-1.648v8.485c0 .964.782 1.744 1.745 1.744h3.795c.121 0 .232-.092.232-.212l-.001-.785c0-.113-.06-.204-.161-.24M39.819 65.969c-1.177-.412-1.402-1.226-1.402-2.604l-.005-8.854c0-3.76-.016-6.877-5.04-6.877-3.252 0-7.256 1.937-8.873 3.26a.344.344 0 0 0-.07.454l.408.535a.35.35 0 0 0 .49.1c1.158-.783 3.877-1.503 5.865-1.503 3.079 0 3.018 1.766 3.017 4.9-1.866.193-4.33.682-6.212 1.129-1.94.461-4.203 1.524-5 3.816-.701 2.018-.386 3.907.54 5.11 1.169 1.518 2.833 1.937 4.46 2.053 1.996 0 3.146-.318 4.677-1.514.047-.037.165-.105.029-.293l-.481-.666c-.12-.165-.232-.136-.333-.096-2.45 1.13-4.431-.146-5.146-1.49-.992-1.867-.307-3.762 1.301-4.805 1.385-.887 4.764-1.447 6.165-1.648v8.485c0 .964.782 1.745 1.746 1.745h3.794c.12 0 .232-.092.232-.213v-.785a.242.242 0 0 0-.162-.24"/>
    </g>
</svg>
