<svg xmlns="http://www.w3.org/2000/svg" xmlns:xlink="http://www.w3.org/1999/xlink" width="354" height="26"><defs><path id="a" d="M0 .617h29.023v25.345H0z"/><path id="c" d="M0 25.962h353.138V.617H0z"/></defs><g fill="none" fill-rule="evenodd"><path fill="#232424" d="M348.126 2.57v12.402h-.055L339.868 2.57h-5.015v20.281h5.015V10.422h.05l8.208 12.43h5.012V2.57z"/><g transform="translate(0 -.578)"><path fill="#232424" d="M227.1 11.24c-2.093-.753-3.21-1.39-3.21-2.524 0-1.133 1.07-1.754 2.149-1.696 1.807.095 3.326 1.346 3.326 1.346l2.176-3.73s-2.277-2.026-5.91-2.026c-3.452 0-6.733 2.297-6.934 6.114-.201 3.779 2.834 5.387 4.63 6.087 1.744.68 3.902 1.132 3.902 2.68 0 1.545-1.507 1.98-2.6 1.966-1.147-.012-2.943-.543-4.458-1.772l-2.006 3.967c.857.672 3.659 2.26 6.782 2.314 3.573.062 7.998-2.13 7.467-7.366-.31-3.053-3.16-4.59-5.315-5.36m67.44 0c-2.094-.753-3.21-1.39-3.21-2.524 0-1.133 1.07-1.754 2.149-1.696 1.806.095 3.326 1.346 3.326 1.346l2.174-3.73s-2.274-2.026-5.908-2.026c-3.451 0-6.733 2.297-6.933 6.114-.203 3.779 2.832 5.387 4.63 6.087 1.743.68 3.902 1.132 3.902 2.68 0 1.545-1.507 1.98-2.6 1.966-1.147-.012-2.944-.543-4.46-1.772l-2.005 3.967c.859.672 3.66 2.26 6.781 2.314 3.572.062 7.996-2.13 7.464-7.366-.309-3.053-3.156-4.59-5.31-5.36m-83.719 3.421c0 2.651-.892 4.412-3.399 4.412-2.51 0-3.403-1.76-3.403-4.412V2.88h-5.011v12.225c0 7.334 4.96 8.593 8.414 8.593 3.454 0 8.417-1.259 8.417-8.593V2.88h-5.018v11.78zm-44.828-3.69h-7.177V3.15h-5.014v20.28h5.014v-8.313h7.177v8.314h5.013V3.149h-5.013zm68.995 12.459h11.28v-4.47h-6.27v-3.495h5.964V11h-5.964V7.61h6.27V3.148h-11.28zm-49.458-4.439a5.702 5.702 0 1 1 0-11.403 5.702 5.702 0 0 1 0 11.403m0-16.514c-5.971 0-10.811 4.841-10.811 10.811 0 5.976 4.84 10.813 10.81 10.813 5.972 0 10.814-4.837 10.814-10.813 0-5.97-4.842-10.811-10.813-10.811m135.648 16.514a5.704 5.704 0 0 1-5.704-5.703 5.705 5.705 0 0 1 5.704-5.7 5.7 5.7 0 0 1 5.7 5.7 5.7 5.7 0 0 1-5.7 5.703m0-16.514c-5.971 0-10.81 4.841-10.81 10.811 0 5.976 4.839 10.813 10.81 10.813 5.97 0 10.811-4.837 10.811-10.813 0-5.97-4.84-10.811-10.811-10.811M66.722 18.994a5.703 5.703 0 1 1 .002-11.407 5.703 5.703 0 0 1-.002 11.407m0-16.515c-5.971 0-10.808 4.84-10.808 10.811 0 5.974 4.837 10.81 10.808 10.81s10.814-4.836 10.814-10.81c0-5.97-4.843-10.811-10.814-10.811m40.925 16.515a5.702 5.702 0 1 1 0-11.406 5.7 5.7 0 0 1 5.697 5.702 5.7 5.7 0 0 1-5.697 5.704m0-16.515c-5.974 0-10.815 4.84-10.815 10.811 0 5.974 4.841 10.81 10.815 10.81 5.966 0 10.806-4.836 10.806-10.81 0-5.97-4.84-10.811-10.806-10.811M87.18 3.15h-5.267v20.277h12.234v-4.7H87.18zm-38.897 0l-6.385 8.418V3.155h-5.271v20.272h5.271v-8.412l6.385 8.41h6.581L46.8 13.29l8.064-10.14zm88.384 0v11.598h-.056l-8.445-11.597h-5.323v20.276h5.27V11.018h.058l9.037 12.409h4.725V3.15z"/><mask id="b" fill="#fff"><use xlink:href="#a"/></mask><path fill="#232424" d="M5.263 2.65C4.689 1.636 5.503.617 6.446.617H22.5c1.324 0 1.678 1.255 1.142 2.112l-2.889 5c-.466.929-1.623.893-2.135.037L15.825 2.9c-.772-1.307-1.856-1.334-2.651 0l-2.739 4.732c-.388.719.213 1.779 1.18 1.779h16.051c1.108 0 1.648 1.236 1.198 2.023 0 0-7.36 12.747-7.953 13.77-.592 1.027-1.999.976-2.57.016l-2.82-4.801c-.577-1.022.207-2.208 1.151-2.208h5.982c.892 0 1.422-.935.908-1.838l-2.627-4.621c-.687-1.173-1.787-1.235-2.511-.051l-7.845 13.506c-.56.968-1.702 1.046-2.32-.005L.213 11.482C-.42 10.352.467 9.41 1.454 9.41h5.56c1.375 0 1.755 1.201 1.212 2.08l-2.875 4.99c-.42.76.25 1.742 1.18 1.73h5.806c.887.012 1.47-.804.956-1.713L5.263 2.65z" mask="url(#b)"/><path fill="#232424" d="M264.44 16.526L259.553 3.15h-5.413l7.985 20.278h4.633l7.987-20.278h-5.413z"/><mask id="d" fill="#fff"><use xlink:href="#c"/></mask><path fill="#232424" d="M277.497 23.429h5.011V3.149h-5.011zm24.57 0h5.011V3.149h-5.011z" mask="url(#d)"/></g></g></svg>