<svg xmlns="http://www.w3.org/2000/svg" xmlns:xlink="http://www.w3.org/1999/xlink" width="28" height="28" viewBox="0 0 28 28">
    <defs>
        <path id="a" d="M0 0h27.173v27.182H0z"/>
    </defs>
    <g fill="none" fill-rule="evenodd">
        <mask id="b" fill="#fff">
            <use xlink:href="#a"/>
        </mask>
        <path fill="#FF5252" d="M25.233 14.557c-.477 7.047-4.106 9.355-7.372 10.255-1.204.331-2.482.44-3.64.44-2.196 0-3.957-.39-3.957-.39-3.61-.74-4.857-3.132-4.857-3.132-1.026-1.786-1.09-4.04-.522-5.593.42-1.148.857-1.838 1.35-2.542.333-.476.21-.874.126-1.038-.12-.236-.72-.34-.72-.34-1.866-.34-2.903-1.36-2.903-1.36-.86-.807-.8-1.802-.8-1.802.062-.715.744-1.013 1.18-1.07.28-.042 1.867-.292 1.867-.292.614-.092.453-.237.491-.68.3-3.431 2.825-4.478 2.825-4.478 1.173-.516 2.422-.605 3.145-.605.381 0 .616.025.616.025 1.354.11 2.707.684 3.833 1.848 1.321 1.365 2.37 4.843.654 7.587-.406.649-.16 1.04-.076 1.115.136.122.442.514 4.14 1.122 0 0 .564.12 1.192.12.408 0 .842-.05 1.167-.218.402-.206.777-.303 1.102-.303.729 0 1.204.49 1.159 1.331m1.783-1.157a2.99 2.99 0 0 0-.686-1.173c-.572-.6-1.373-.931-2.256-.931-.637 0-1.29.167-1.945.495a1.603 1.603 0 0 1-.324.025c-.398 0-.784-.076-.787-.077l-.045-.01-.045-.007c-.975-.16-1.671-.3-2.165-.413a7.885 7.885 0 0 0 .504-1.754 8.73 8.73 0 0 0 .009-2.768 9.227 9.227 0 0 0-.718-2.411c-.344-.75-.783-1.411-1.269-1.913A8.136 8.136 0 0 0 14.886.736a7.757 7.757 0 0 0-2.65-.704c-.1-.009-.384-.032-.79-.032-.991 0-2.475.133-3.917.765-.222.095-1.062.494-1.922 1.382a7.16 7.16 0 0 0-1.31 1.885 7.824 7.824 0 0 0-.625 1.914c-.369.057-.703.11-.828.128a3.568 3.568 0 0 0-1.606.646 2.984 2.984 0 0 0-1.23 2.168l-.002.025-.001.026a3.94 3.94 0 0 0 .137 1.207 4.47 4.47 0 0 0 1.256 2.105c.124.12.489.447 1.088.81.436.263.896.484 1.375.663-.269.48-.537 1.045-.795 1.752-.387 1.056-.542 2.271-.45 3.514.1 1.32.478 2.592 1.097 3.677.126.23.572.971 1.466 1.78.564.51 1.203.955 1.9 1.32a10.55 10.55 0 0 0 2.782.983c.215.046 2.073.432 4.36.432 1.53 0 2.927-.171 4.156-.51a12.764 12.764 0 0 0 2.897-1.17 10.525 10.525 0 0 0 2.778-2.243c.882-1.006 1.589-2.21 2.101-3.577.546-1.454.887-3.135 1.012-4.995l.001-.013v-.014a3.545 3.545 0 0 0-.15-1.26" mask="url(#b)"/>
    </g>
</svg>
