<svg xmlns="http://www.w3.org/2000/svg" width="176" height="48" viewBox="0 0 176 48">
    <defs>
        <filter id="a" width="110.7%" height="172.7%" x="-5.3%" y="-36.4%" filterUnits="objectBoundingBox">
            <feOffset in="SourceAlpha" result="shadowOffsetOuter1"/>
            <feGaussianBlur in="shadowOffsetOuter1" result="shadowBlurOuter1" stdDeviation="2"/>
            <feColorMatrix in="shadowBlurOuter1" result="shadowMatrixOuter1" values="0 0 0 0 0 0 0 0 0 0 0 0 0 0 0 0 0 0 0.2 0"/>
            <feMerge>
                <feMergeNode in="shadowMatrixOuter1"/>
                <feMergeNode in="SourceGraphic"/>
            </feMerge>
        </filter>
    </defs>
    <g fill="#FFF" fill-rule="evenodd" filter="url(#a)" transform="translate(13 13)">
        <path d="M148.463 17.04a1.917 1.917 0 0 0-.055-.071l-5.288-6.396c.42-.434.844-.862 1.26-1.282.971-.98 1.974-1.99 2.888-3.07.591-.595.915-1.34.915-2.104 0-.784-.342-1.547-.962-2.15-.637-.632-1.398-.967-2.2-.967-.546 0-1.37.165-2.2.947l-.045.044-5.102 5.26V4.105c0-1.754-1.327-3.08-3.086-3.08-1.785 0-3.13 1.326-3.13 3.08v14.818c0 .913.363 1.724 1.026 2.285.56.475 1.296.735 2.074.735 1.776 0 3.116-1.298 3.116-3.02v-3.096l.996-1.1 4.725 5.995c.542.814 1.432 1.279 2.456 1.279 1.246 0 2.442-.704 2.978-1.752.514-1.006.381-2.176-.366-3.208M129.002 15.428c-.549-.732-1.489-1.187-2.453-1.187-.67 0-1.3.214-1.824.62l-.074.06c-.954.852-1.984 1.283-3.06 1.283-3.232 0-4.406-2.363-4.436-4.606.03-2.244 1.204-4.608 4.435-4.608 1.077 0 2.107.432 3.061 1.284.024.02.048.041.074.06.523.406 1.154.62 1.824.62.964 0 1.904-.455 2.453-1.187l.012-.016c.786-1.08.961-2.788-.419-4.168a.612.612 0 0 1-.037-.035c-2.245-2.085-4.904-2.352-6.968-2.352-6.202 0-10.228 4.038-10.305 10.303h-.004v.013l.002.086-.002.085v.013h.004C111.362 17.961 115.388 22 121.59 22c2.064 0 4.723-.266 6.968-2.352l.037-.035c1.38-1.38 1.205-3.087.42-4.168l-.013-.016M106.393 1c-1.505 0-3.104 1.106-3.104 3.157v9.277c0 .8-.276 1.43-.818 1.869-.515.417-1.272.655-2.076.655h-.001c-1.487 0-3.088-.79-3.088-2.524V4.157c0-1.525-1.061-3.146-3.03-3.146-1.494 0-3.083 1.102-3.083 3.146v9.277c0 5.624 4.58 8.566 9.104 8.566 4.525 0 9.105-2.942 9.105-8.566V4.157c0-2.072-1.514-3.157-3.01-3.157M76.378 7.029h2.947c1.281 0 2.292.436 3.007 1.294.656.789 1.018 1.884 1.018 3.08 0 2.2-1.259 4.567-4.025 4.567h-2.947V7.029zm2.947-6.03h-6.014c-1.558 0-3.225 1.223-3.225 3.042V18.96c0 1.76 1.356 3.04 3.225 3.04h6.251c6.636 0 10.11-5.286 10.11-10.507 0-2.727-.912-5.274-2.566-7.171C85.212 2.149 82.522 1 79.326 1zM64.847 1c-1.616 0-3.033 1.49-3.033 3.189v6.093l-6.11-7.64a1.404 1.404 0 0 0-.122-.134l-.072-.07c-.79-.762-1.346-1.23-2.74-1.23-.889 0-2.955.315-2.955 3.24v14.364c0 1.818 1.359 3.188 3.162 3.188 1.758 0 3.033-1.341 3.033-3.188v-5.997l6.104 7.745c.044.055.092.108.144.157.895.832 1.646 1.283 3.056 1.283.139 0 .277-.021.411-.062 1.501-.461 2.362-1.601 2.362-3.126V4.189c0-1.64-1.575-3.19-3.24-3.19M44.682 1c-1.797 0-3.151 1.308-3.151 3.04v14.91c0 1.739 1.338 3.05 3.112 3.05 1.792 0 3.143-1.311 3.143-3.05V4.04c0-1.732-1.334-3.04-3.104-3.04M29.349 6.975c3.184 0 4.634 2.39 4.634 4.608 0 3.381-2.772 4.61-4.634 4.61-3.325 0-4.533-2.757-4.533-4.61 0-1.852 1.208-4.608 4.533-4.608m7.336-3.162c-1.859-1.677-4.342-2.675-6.989-2.812L29.625 1c-5.383 0-10.834 3.636-10.834 10.584C18.791 18.421 24.027 22 29.199 22c.152 0 .304-.003.456-.008 2.596-.007 5.155-.967 7.024-2.636 1.507-1.346 3.304-3.786 3.304-7.772 0-3.136-1.141-5.824-3.298-7.77M17.721 15.428c-.549-.732-1.489-1.187-2.453-1.187-.67 0-1.3.214-1.824.62l-.074.06c-.955.852-1.984 1.283-3.06 1.283-3.232 0-4.406-2.363-4.436-4.606.03-2.244 1.204-4.608 4.435-4.608 1.077 0 2.106.432 3.061 1.284.024.02.048.041.074.06.523.406 1.154.62 1.824.62.964 0 1.904-.455 2.453-1.187l.012-.016c.785-1.08.961-2.788-.419-4.168a.612.612 0 0 1-.037-.035c-2.245-2.085-4.904-2.352-6.968-2.352C4.107 1.196.081 5.234.003 11.5H0v.013l.001.086v.098h.002C.081 17.961 4.107 22 10.31 22c2.064 0 4.723-.266 6.968-2.352l.037-.035c1.38-1.38 1.204-3.087.42-4.168l-.013-.016"/>
    </g>
</svg>
