<svg xmlns="http://www.w3.org/2000/svg" width="121" height="17"><path d="M120.185 12.985a1.3 1.3 0 0 0-.046-.058l-4.28-5.177c.34-.352.682-.7 1.02-1.037.785-.793 1.598-1.613 2.338-2.487.478-.481.74-1.084.74-1.702 0-.635-.276-1.253-.779-1.741-.514-.512-1.13-.782-1.78-.782-.442 0-1.109.132-1.78.766a1.24 1.24 0 0 0-.037.035l-4.13 4.259V2.513c0-1.421-1.076-2.492-2.499-2.492-1.445 0-2.535 1.07-2.535 2.492v11.995c0 .74.295 1.397.831 1.85.454.384 1.05.596 1.68.596 1.438 0 2.522-1.052 2.522-2.446v-2.505l.806-.892 3.825 4.853c.44.66 1.16 1.037 1.99 1.037 1.007 0 1.975-.571 2.41-1.42.416-.814.308-1.76-.296-2.596M104.43 11.68c-.444-.593-1.205-.961-1.985-.961-.542 0-1.053.174-1.477.502l-.059.049c-.774.689-1.608 1.039-2.479 1.039-2.615 0-3.566-1.914-3.59-3.73.025-1.816.975-3.729 3.59-3.729.871 0 1.705.35 2.48 1.038.017.018.038.034.058.05.423.328.934.502 1.477.502.78 0 1.542-.368 1.986-.961.002-.005.007-.009.01-.014.635-.874.776-2.257-.34-3.374l-.03-.028c-1.819-1.688-3.97-1.904-5.64-1.904-5.022 0-8.28 3.269-8.343 8.341h-.003v.01c0 .024 0 .046.002.069-.002.024-.002.046-.002.069v.011h.003C90.15 13.731 93.41 17 98.43 17c1.67 0 3.822-.216 5.64-1.904l.03-.029c1.117-1.117.975-2.499.34-3.374l-.01-.013M86.127 0c-1.218 0-2.513.896-2.513 2.555v7.51c0 .65-.222 1.16-.661 1.513-.417.337-1.03.53-1.68.53h-.001c-1.205 0-2.5-.639-2.5-2.043v-7.51c0-1.235-.86-2.547-2.453-2.547-1.21 0-2.497.892-2.497 2.547v7.51c0 4.552 3.708 6.935 7.37 6.935 3.664 0 7.372-2.383 7.372-6.935v-7.51C88.564.878 87.338 0 86.127 0M61.83 4.881h2.386c1.037 0 1.855.353 2.433 1.047.533.64.826 1.524.826 2.494 0 1.781-1.021 3.697-3.26 3.697H61.83V4.881zm2.386-4.88h-4.87c-1.26 0-2.61.988-2.61 2.46v12.077c0 1.427 1.098 2.462 2.61 2.462h5.06c5.374 0 8.185-4.279 8.185-8.507 0-2.207-.738-4.268-2.076-5.804C68.98.93 66.804 0 64.215 0zM52.495 0c-1.308 0-2.455 1.206-2.455 2.581v4.933l-4.945-6.186a1.469 1.469 0 0 0-.1-.108l-.06-.056C44.298.546 43.849.168 42.72.168c-.72 0-2.393.256-2.393 2.623v11.627c0 1.472 1.1 2.582 2.56 2.582 1.423 0 2.456-1.086 2.456-2.582V9.564l4.94 6.27c.036.044.075.087.117.127.724.674 1.333 1.04 2.474 1.04.113 0 .225-.019.333-.05 1.215-.375 1.912-1.298 1.912-2.533V2.581c0-1.327-1.274-2.58-2.623-2.58M36.17 0c-1.453 0-2.55 1.058-2.55 2.461v12.07c0 1.407 1.083 2.47 2.52 2.47 1.45 0 2.545-1.063 2.545-2.47V2.461c0-1.403-1.081-2.46-2.514-2.46M23.759 4.837c2.577 0 3.75 1.934 3.75 3.73 0 2.738-2.242 3.731-3.75 3.731-2.692 0-3.67-2.232-3.67-3.73 0-1.5.978-3.73 3.67-3.73m5.938-2.56C28.193.92 26.183.11 24.039 0h-.055c-4.36 0-8.772 2.941-8.772 8.566 0 5.537 4.238 8.433 8.426 8.433.123 0 .246-.003.369-.008 2.102-.006 4.173-.782 5.687-2.134 1.219-1.088 2.673-3.064 2.673-6.29 0-2.54-.922-4.715-2.67-6.29M14.345 11.68c-.444-.593-1.205-.961-1.985-.961-.542 0-1.053.174-1.477.502-.02.016-.04.032-.058.049-.774.689-1.608 1.039-2.48 1.039-2.615 0-3.566-1.914-3.59-3.73.024-1.816.976-3.729 3.59-3.729.871 0 1.705.35 2.48 1.038a.693.693 0 0 0 .058.05c.424.328.935.502 1.478.502.78 0 1.54-.368 1.984-.961l.01-.014c.636-.874.777-2.257-.34-3.374l-.029-.028C12.168.375 10.016.159 8.346.159 3.324.159.066 3.428.002 8.5H0v.01c0 .024.002.046.003.069L0 8.648v.011h.004C.066 13.731 3.324 17 8.345 17c1.671 0 3.823-.216 5.641-1.904l.03-.029c1.117-1.117.976-2.499.34-3.374l-.01-.013" fill="#FFF" fill-rule="evenodd"/></svg>