<svg xmlns="http://www.w3.org/2000/svg" xmlns:xlink="http://www.w3.org/1999/xlink" width="111" height="89" viewBox="0 0 111 89">
    <defs>
        <path id="a" d="M.263.24H7.86v10.583H.263z"/>
        <path id="c" d="M.472.324h53.456v54.108H.472z"/>
    </defs>
    <g fill="none" fill-rule="evenodd">
        <path fill="#242424" d="M6.082 82.945c.682 0 .909.234.909.935v1.287c0 2.339-1.249 3.644-3.448 3.644C1.345 88.811 0 87.467 0 85.13v-7.993c0-.76.228-.994.966-.994h.343c.737 0 .984.234.984.994v1.209h3.524c.738 0 .966.234.966.993v.059c0 .722-.228.996-.966.996H2.293v4.852c0 1.014.417 1.52 1.25 1.52.853 0 1.29-.506 1.29-1.52v-1.326c0-.721.244-.974.947-.974h.302zM15.292 80.508c.17-1.422 1.156-2.26 2.217-2.26.455 0 .644.156.644.681v1.054c0 .525-.17.623-.57.623h-.434c-1.117 0-1.857.838-1.857 2.241v4.855c0 .76-.247 1.012-.985 1.012h-.36c-.758 0-.985-.253-.985-1.012v-8.343c0-.761.227-1.014.985-1.014h.36c.738 0 .985.253.985 1.014v1.15zM24.805 84.173v1.013c0 1.073.567 1.618 1.687 1.618.738 0 1.212-.312 1.42-.936.209-.525.38-.682.93-.682h.397c.682 0 .947.37.776 1.112-.36 1.46-1.63 2.514-3.657 2.514-2.348 0-3.788-1.462-3.788-3.802v-2.962c0-2.339 1.44-3.82 3.788-3.82 2.35 0 3.808 1.481 3.808 3.82v1.092c0 .8-.209 1.033-.832 1.033h-4.529zm3.108-1.736v-.585c0-1.012-.551-1.618-1.555-1.618-1.003 0-1.553.606-1.553 1.618v.585h3.108zM38.22 84.173v1.013c0 1.073.569 1.618 1.688 1.618.738 0 1.211-.312 1.42-.936.208-.525.379-.682.929-.682h.397c.683 0 .947.37.777 1.112-.36 1.46-1.629 2.514-3.656 2.514-2.349 0-3.79-1.462-3.79-3.802v-2.962c0-2.339 1.441-3.82 3.79-3.82s3.808 1.481 3.808 3.82v1.092c0 .8-.208 1.033-.834 1.033h-4.528zm3.108-1.736v-.585c0-1.012-.55-1.618-1.553-1.618-1.005 0-1.554.606-1.554 1.618v.585h3.107zM57.209 87.7c0 .76-.248 1.014-.985 1.014h-.362c-.739 0-.985-.254-.985-1.014v-5.613c0-1.073-.55-1.696-1.401-1.696-.967 0-1.573.76-1.573 1.911V87.7c0 .76-.247 1.014-.985 1.014h-.342c-.757 0-.984-.254-.984-1.014V76.123c0-.76.227-1.014.984-1.014h.342c.738 0 .985.254.985 1.014v4.093c.171-.955 1.137-1.91 2.444-1.91 1.724 0 2.862 1.248 2.862 3.43V87.7zM70.851 84.991c0 2.36-1.476 3.82-3.808 3.82-2.33 0-3.79-1.481-3.79-3.82v-2.943c0-2.339 1.46-3.82 3.79-3.82 2.332 0 3.808 1.481 3.808 3.82v2.943zm-5.286.136c0 1.072.493 1.619 1.478 1.619 1.004 0 1.496-.547 1.496-1.619v-3.215c0-1.073-.492-1.618-1.496-1.618-.985 0-1.478.545-1.478 1.618v3.215zM79.209 85.127c0 1.072.492 1.619 1.477 1.619.985 0 1.478-.547 1.478-1.619v-5.769c0-.76.247-1.014.986-1.014h.361c.737 0 .984.254.984 1.014v5.633c0 2.358-1.478 3.82-3.809 3.82-2.33 0-3.789-1.481-3.789-3.82v-5.633c0-.76.247-1.014.986-1.014h.36c.739 0 .966.254.966 1.014v5.77zM96.338 81.697c-.66 0-.813-.116-1.022-.604-.189-.565-.626-.858-1.327-.858-.396 0-.7.099-.91.293-.397.39-.471 1.17.21 1.579.681.409 1.705.642 2.67 1.032.987.39 1.763 1.248 1.763 2.553a2.98 2.98 0 0 1-.947 2.222c-.626.606-1.496.898-2.653.898-1.06 0-1.914-.234-2.577-.703-.664-.487-1.06-1.013-1.193-1.617-.152-.644.075-1.092.7-1.092h.606c.55 0 .683.117.929.644.171.39.701.799 1.555.799.89 0 1.325-.429 1.325-1.034 0-.643-.794-1.032-1.781-1.325-1.42-.409-3.278-1.071-3.26-3.157 0-.878.323-1.598.949-2.202.645-.604 1.515-.898 2.595-.898.929 0 1.724.235 2.35.683.643.448 1.041.994 1.174 1.638.152.643-.095 1.15-.758 1.15h-.398z"/>
        <g transform="translate(102.824 77.989)">
            <mask id="b" fill="#fff">
                <use xlink:href="#a"/>
            </mask>
            <path fill="#242424" d="M2.497 6.184v1.013c0 1.073.568 1.619 1.687 1.619.739 0 1.214-.312 1.42-.937.208-.525.38-.682.93-.682h.396c.683 0 .95.37.778 1.112-.36 1.461-1.63 2.514-3.657 2.514-2.348 0-3.788-1.462-3.788-3.802V4.06c0-2.34 1.44-3.82 3.788-3.82 2.35 0 3.808 1.48 3.808 3.82v1.092c0 .799-.208 1.032-.833 1.032H2.497zm3.108-1.736v-.584c0-1.012-.55-1.618-1.554-1.618s-1.554.606-1.554 1.618v.584h3.108z" mask="url(#b)"/>
        </g>
        <g transform="translate(28.141 .059)">
            <mask id="d" fill="#fff">
                <use xlink:href="#c"/>
            </mask>
            <path fill="#737373" d="M27.343 53.554c.9-.002 1.781.099 2.629.285a12.159 12.159 0 0 0 3.76.593c4.82-.01 8.99-2.855 11.026-6.997.209-.426.397-.865.56-1.316a12.74 12.74 0 0 1 3.16-4.079c.334-.231.653-.477.962-.74 2.748-2.34 4.496-5.878 4.488-9.836a12.95 12.95 0 0 0-1.78-6.555 13.017 13.017 0 0 1-1.152-5.14c.025-.34.044-.683.043-1.03 0-.072-.005-.143-.006-.214-.107-5.998-4.243-10.977-9.739-12.203a12.462 12.462 0 0 1-5.7-2.643c-.208-.199-.426-.387-.648-.569C32.823 1.362 30.131.318 27.201.323c-2.93-.005-5.622 1.039-7.746 2.787-.221.182-.438.37-.647.57a12.46 12.46 0 0 1-5.7 2.642c-5.497 1.226-9.632 6.205-9.74 12.203 0 .071-.005.142-.005.213-.001.348.015.692.041 1.032a12.98 12.98 0 0 1-1.152 5.139 12.967 12.967 0 0 0-1.78 6.556c-.008 3.957 1.742 7.495 4.49 9.836.307.262.627.508.959.74a12.744 12.744 0 0 1 3.162 4.078c.164.45.352.89.56 1.316 2.036 4.142 6.205 6.987 11.026 6.997a12.194 12.194 0 0 0 3.762-.593 12.092 12.092 0 0 1 2.628-.285h.284z" mask="url(#d)"/>
        </g>
        <path fill="#242424" d="M65.979 32.61a1.257 1.257 0 0 0-1.815.007l-7.728 8.006V30.477l7.974-8.262a1.148 1.148 0 0 0-.006-1.59 1.07 1.07 0 0 0-1.547.005l-6.421 6.653V14.579c0-.621-.49-1.126-1.094-1.126-.605 0-1.095.505-1.095 1.126v12.704l-6.42-6.653a1.07 1.07 0 0 0-1.546-.005 1.146 1.146 0 0 0-.007 1.59l7.973 8.26v10.148l-7.727-8.006a1.257 1.257 0 0 0-1.815-.007 1.349 1.349 0 0 0-.005 1.868l9.547 9.893v16.78c0 .62.49 1.125 1.095 1.125.604 0 1.094-.504 1.094-1.125V44.37l9.55-9.893c.5-.518.496-1.353-.007-1.868"/>
    </g>
</svg>
